<svg width="82" height="82" viewBox="0 0 82 82" fill="none" xmlns="http://www.w3.org/2000/svg">
<g clip-path="url(#clip0_515_1969)">
<path d="M35.6692 38.9616H25.8424C24.027 38.9616 22.55 37.4846 22.55 35.6692V25.8422C22.55 24.0268 24.027 22.55 25.8424 22.55H35.6692C37.4846 22.55 38.9616 24.0268 38.9616 25.8422V35.6692C38.9616 37.4846 37.4846 38.9616 35.6692 38.9616ZM25.8424 24.19C24.9311 24.19 24.19 24.9311 24.19 25.8422V35.6692C24.19 36.5803 24.9311 37.3216 25.8424 37.3216H35.6692C36.5805 37.3216 37.3216 36.5803 37.3216 35.6692V25.8422C37.3216 24.9311 36.5805 24.19 35.6692 24.19H25.8424Z" fill="#2E6FF2"/>
<path d="M55.6945 23.37H45.8676C44.5022 23.37 43.3953 24.4769 43.3953 25.8423V35.6692C43.3953 37.0347 44.5022 38.1416 45.8676 38.1416H55.6945C57.0599 38.1416 58.1668 37.0347 58.1668 35.6692V25.8423C58.1668 24.4769 57.0599 23.37 55.6945 23.37Z" fill="#B5CEFF"/>
<path d="M55.6943 38.9616H45.8675C44.0522 38.9616 42.5751 37.4846 42.5751 35.6692V25.8422C42.5751 24.0268 44.0522 22.55 45.8675 22.55H55.6943C57.5097 22.55 58.9867 24.0268 58.9867 25.8422V35.6692C58.9867 37.4846 57.5097 38.9616 55.6943 38.9616ZM45.8675 24.19C44.9563 24.19 44.2151 24.9311 44.2151 25.8422V35.6692C44.2151 36.5803 44.9563 37.3216 45.8675 37.3216H55.6943C56.6056 37.3216 57.3467 36.5803 57.3467 35.6692V25.8422C57.3467 24.9311 56.6056 24.19 55.6943 24.19H45.8675Z" fill="#2E6FF2"/>
<path d="M35.6692 58.7073H25.8424C24.027 58.7073 22.55 57.2304 22.55 55.4151V45.5881C22.55 43.7727 24.027 42.2957 25.8424 42.2957H35.6692C37.4846 42.2957 38.9616 43.7727 38.9616 45.5881V55.4151C38.9616 57.2304 37.4846 58.7073 35.6692 58.7073ZM25.8424 43.9357C24.9311 43.9357 24.19 44.677 24.19 45.5881V55.4151C24.19 56.3261 24.9311 57.0673 25.8424 57.0673H35.6692C36.5805 57.0673 37.3216 56.3261 37.3216 55.4151V45.5881C37.3216 44.677 36.5805 43.9357 35.6692 43.9357H25.8424Z" fill="#2E6FF2"/>
<path d="M55.6943 58.7073H45.8675C44.0522 58.7073 42.5751 57.2304 42.5751 55.4151V45.5881C42.5751 43.7727 44.0522 42.2957 45.8675 42.2957H55.6943C57.5097 42.2957 58.9867 43.7727 58.9867 45.5881V55.4151C58.9867 57.2304 57.5097 58.7073 55.6943 58.7073ZM45.8675 43.9357C44.9563 43.9357 44.2151 44.677 44.2151 45.5881V55.4151C44.2151 56.3261 44.9563 57.0673 45.8675 57.0673H55.6943C56.6056 57.0673 57.3467 56.3261 57.3467 55.4151V45.5881C57.3467 44.677 56.6056 43.9357 55.6943 43.9357H45.8675Z" fill="#2E6FF2"/>
</g>
<defs>
<clipPath id="clip0_515_1969">
<rect width="82" height="82" fill="white"/>
</clipPath>
</defs>
</svg>
