<svg width="82" height="82" viewBox="0 0 82 82" fill="none" xmlns="http://www.w3.org/2000/svg">
<g clip-path="url(#clip0_515_31)">
<path d="M40.1131 28.5653C40.1131 27.9238 39.5931 27.4037 38.9514 27.4037C38.3099 27.4037 37.7898 27.9238 37.7898 28.5653C37.7898 29.2069 38.3099 29.727 38.9514 29.727C39.5931 29.727 40.1131 29.2069 40.1131 28.5653Z" fill="#2E6FF2"/>
<path d="M43.0218 29.727C43.6633 29.727 44.1834 29.2069 44.1834 28.5653C44.1834 27.9238 43.6633 27.4037 43.0218 27.4037C42.3802 27.4037 41.8602 27.9238 41.8602 28.5653C41.8602 29.2069 42.3802 29.727 43.0218 29.727Z" fill="#2E6FF2"/>
<path d="M64.0311 41.303V34.3535C64.0311 33.5335 63.6457 32.7504 62.9815 32.2051C62.2148 31.5819 61.1611 31.3318 60.1566 31.5368L59.0373 31.7664V29.5893C59.0373 29.3515 58.9348 29.1219 58.7544 28.9661C58.5781 28.8103 58.3362 28.7406 58.1025 28.7775C56.8561 28.9579 55.622 29.2121 54.4289 29.5196C53.6991 22.7505 47.955 17.4656 41.0014 17.4656C34.0437 17.4656 28.2996 22.7505 27.5698 29.5196C26.3768 29.2121 25.1427 28.9579 23.8962 28.7775C23.6625 28.7406 23.4247 28.8103 23.2443 28.9661C23.0639 29.1219 22.9614 29.3515 22.9614 29.5893V31.7664L21.8421 31.5368C20.8377 31.3318 19.7839 31.5819 19.0213 32.2051C18.353 32.7504 17.9718 33.5335 17.9718 34.3535V41.303C15.8889 41.9221 14.3555 43.9885 14.3555 46.4321C14.3555 48.8798 15.8889 50.9462 17.9718 51.5653V56.9978C17.9718 58.359 18.9886 59.5152 20.444 59.8145L37.6353 63.3323C38.0412 64.0498 38.812 64.5336 39.6977 64.5336H42.3011C43.1868 64.5336 43.9575 64.0498 44.3634 63.3323L61.5547 59.8145C63.0143 59.5152 64.0311 58.359 64.0311 56.9978V51.5653C66.1139 50.9421 67.6473 48.8757 67.6473 46.4321C67.6473 43.9926 66.1139 41.9262 64.0311 41.303ZM54.5027 31.1965C55.4498 30.9423 56.4174 30.7209 57.3973 30.5487V32.1026L45.7164 34.4929C45.7411 34.4806 45.7656 34.4683 45.7902 34.456C47.4507 33.6647 49.9722 32.5659 52.8422 31.6762C53.1169 31.5901 53.3957 31.504 53.6786 31.422C53.9493 31.3441 54.2239 31.2703 54.5027 31.1965ZM41.0014 19.1056C47.2047 19.1056 52.3093 23.8903 52.8218 29.9624C48.2625 31.3154 44.5274 33.2137 43.3261 33.8574H43.322C43.0145 33.7057 42.6661 33.6237 42.3011 33.6237H39.6977C39.3327 33.6237 38.9843 33.7057 38.6768 33.8574H38.6727C37.4713 33.2137 33.7321 31.3154 29.177 29.9624C29.6895 23.8903 34.7981 19.1056 41.0014 19.1056ZM24.6014 30.5487C25.5813 30.7209 26.5489 30.9423 27.4961 31.1965C27.7748 31.2703 28.0495 31.3441 28.3202 31.422L36.2127 34.456H36.2168C36.2168 34.456 36.2208 34.456 36.2208 34.4601C36.2454 34.4683 36.2618 34.4847 36.2905 34.4929L35.9174 34.4191L35.9052 34.415L24.6014 32.1026V30.5487ZM17.9718 49.8105C16.8073 49.2406 15.9955 47.9409 15.9955 46.4321C15.9955 44.9274 16.8073 43.6277 17.9718 43.0578C18.3736 42.8569 18.8204 42.7462 19.2919 42.7462C19.3986 42.7462 19.5052 42.7503 19.6118 42.7626C21.2312 42.943 22.412 44.46 22.412 46.4321C22.412 48.4083 21.2312 49.9253 19.6118 50.1057C19.5052 50.118 19.3986 50.1221 19.2919 50.1221C18.8204 50.1221 18.3736 50.0114 17.9718 49.8105ZM19.6118 56.9978V51.7498C22.125 51.5735 24.052 49.3021 24.052 46.4321C24.052 43.5662 22.125 41.2948 19.6118 41.1185V34.3535C19.6118 33.9066 19.8905 33.6114 20.0586 33.4761C20.444 33.1604 20.9893 33.0374 21.5141 33.144L23.4944 33.5499C23.5723 33.5786 23.6584 33.5991 23.7486 33.6032H23.7568L37.3196 36.3789V61.5939L20.772 58.2073C20.0873 58.0679 19.6118 57.5677 19.6118 56.9978ZM42.3011 62.8936H39.6977C39.2918 62.8936 38.9596 62.5656 38.9596 62.1556V36.0017C38.9596 35.5958 39.2918 35.2637 39.6977 35.2637H42.3011C42.707 35.2637 43.0391 35.5958 43.0391 36.0017V62.1556C43.0391 62.5656 42.707 62.8936 42.3011 62.8936ZM62.3911 56.9978C62.3911 57.5677 61.9114 58.0679 61.2268 58.2073L44.6791 61.5939V36.3789L58.2419 33.6032H58.2502C58.3403 33.5991 58.4305 33.5786 58.5084 33.5499L58.5125 33.5458L60.4846 33.144C61.0094 33.0374 61.5547 33.1604 61.9443 33.4761C62.1082 33.6114 62.3911 33.9066 62.3911 34.3535V41.1185C59.8737 41.2948 57.9468 43.5662 57.9468 46.4321C57.9468 49.3021 59.8737 51.5735 62.3911 51.7498V56.9978ZM64.0311 49.8105C63.6252 50.0114 63.1783 50.1221 62.7068 50.1221C62.6002 50.1221 62.4936 50.118 62.3911 50.1057C60.7757 49.9294 59.5868 48.4083 59.5868 46.4321C59.5868 44.46 60.7757 42.9389 62.3911 42.7626C62.4936 42.7503 62.6002 42.7462 62.7068 42.7462C63.1783 42.7462 63.6252 42.8569 64.0311 43.0578C65.1955 43.6277 66.0073 44.9274 66.0073 46.4321C66.0073 47.9409 65.1955 49.2406 64.0311 49.8105Z" fill="#2E6FF2"/>
<path d="M57.3907 42.1268L51.0843 43.3181C50.2868 43.4688 49.5489 42.8572 49.5489 42.0456V40.0294C49.5489 39.4068 49.9918 38.8724 50.6035 38.7568L56.9099 37.5655C57.7074 37.4149 58.4453 38.0265 58.4453 38.8381V40.8543C58.4453 41.4768 58.0024 42.0112 57.3907 42.1268Z" fill="#B5CEFF"/>
</g>
<defs>
<clipPath id="clip0_515_31">
<rect width="82" height="82" fill="white"/>
</clipPath>
</defs>
</svg>
