<svg width="82" height="82" viewBox="0 0 82 82" fill="none" xmlns="http://www.w3.org/2000/svg">
<path d="M59.8764 24.6779H57.2606V23.2675C57.2606 21.7505 56.0265 20.5164 54.5095 20.5164C52.9925 20.5164 51.7625 21.7505 51.7625 23.2675V24.6779H48.6137V23.2675C48.6137 21.7505 47.3796 20.5164 45.8667 20.5164C44.3538 20.5164 43.1156 21.7505 43.1156 23.2675V24.6779H39.9709V23.2675C39.9709 21.7505 38.7368 20.5164 37.2198 20.5164C35.7028 20.5164 34.4728 21.7505 34.4728 23.2675V24.6779H31.324V23.2675C31.324 21.7505 30.0899 20.5164 28.577 20.5164C27.0641 20.5164 25.8259 21.7505 25.8259 23.2675V24.6779H23.2101C20.4467 24.6779 18.1958 26.9288 18.1958 29.6922V55.3582C18.1958 58.1216 20.4467 60.3684 23.2101 60.3684H59.8764C62.6398 60.3684 64.8866 58.1216 64.8866 55.3582V29.6922C64.8866 26.9288 62.6398 24.6779 59.8764 24.6779ZM53.4025 24.6779V23.2675C53.4025 22.6566 53.8986 22.1564 54.5095 22.1564C55.1204 22.1564 55.6206 22.6566 55.6206 23.2675V27.7324C55.6206 28.3433 55.1204 28.8394 54.5095 28.8394C53.8986 28.8394 53.4025 28.3433 53.4025 27.7324V24.6779ZM44.7556 24.6779V23.2675C44.7556 22.6566 45.2517 22.1564 45.8667 22.1564C46.4817 22.1564 46.9737 22.6566 46.9737 23.2675V27.7324C46.9737 28.3433 46.4776 28.8394 45.8667 28.8394C45.2558 28.8394 44.7556 28.3433 44.7556 27.7324V24.6779ZM36.1128 24.6779V23.2675C36.1128 22.6566 36.6089 22.1564 37.2198 22.1564C37.8307 22.1564 38.3309 22.6566 38.3309 23.2675V27.7324C38.3309 28.3433 37.8307 28.8394 37.2198 28.8394C36.6089 28.8394 36.1128 28.3433 36.1128 27.7324V24.6779ZM27.4659 24.6779V23.2675C27.4659 22.6566 27.962 22.1564 28.577 22.1564C29.192 22.1564 29.684 22.6566 29.684 23.2675V27.7324C29.684 28.3433 29.1879 28.8394 28.577 28.8394C27.9661 28.8394 27.4659 28.3433 27.4659 27.7324V24.6779ZM63.2466 55.3582C63.2466 57.2155 61.7337 58.7284 59.8764 58.7284H23.2101C21.3487 58.7284 19.8358 57.2155 19.8358 55.3582V29.6922C19.8358 27.8308 21.3487 26.3179 23.2101 26.3179H25.8259V27.7324C25.8259 29.2453 27.06 30.4794 28.577 30.4794C30.094 30.4794 31.324 29.2453 31.324 27.7324V26.3179H34.4728V27.7324C34.4728 29.2453 35.7028 30.4794 37.2198 30.4794C38.7368 30.4794 39.9709 29.2453 39.9709 27.7324V26.3179H43.1156V27.7324C43.1156 29.2453 44.3497 30.4794 45.8667 30.4794C47.3837 30.4794 48.6137 29.2453 48.6137 27.7324V26.3179H51.7625V27.7324C51.7625 29.2453 52.9925 30.4794 54.5095 30.4794C56.0265 30.4794 57.2606 29.2453 57.2606 27.7324V26.3179H59.8764C61.7337 26.3179 63.2466 27.8308 63.2466 29.6922V55.3582Z" fill="#2E6FF2"/>
<path d="M57.8961 32.9517H24.0998C23.6488 32.9517 23.2798 33.3207 23.2798 33.7717C23.2798 34.2227 23.6488 34.5917 24.0998 34.5917H57.8961C58.3471 34.5917 58.7161 34.2227 58.7161 33.7717C58.7161 33.3207 58.3471 32.9517 57.8961 32.9517Z" fill="#2E6FF2"/>
<path d="M42.6154 39.5691L43.952 42.2792C44.1242 42.6318 44.4604 42.8778 44.8499 42.9311L47.8429 43.3657C48.8228 43.5092 49.2123 44.7105 48.503 45.4034L46.3382 47.5149C46.0553 47.7896 45.9282 48.1832 45.9938 48.5727L46.5063 51.5534C46.6744 52.5292 45.6494 53.2713 44.772 52.8121L42.0988 51.4058C41.7503 51.2213 41.3362 51.2213 40.9877 51.4058L38.3145 52.8121C37.4371 53.2713 36.4162 52.5292 36.5802 51.5534L37.0927 48.5727C37.1583 48.1873 37.0312 47.7896 36.7483 47.5149L34.5835 45.4034C33.8742 44.7105 34.2678 43.5092 35.2436 43.3657L38.2366 42.9311C38.6261 42.8737 38.9623 42.6318 39.1345 42.2792L40.4711 39.5691C40.9098 38.6835 42.1767 38.6835 42.6113 39.5691H42.6154Z" fill="#B5CEFF"/>
<path d="M60.3684 63.017C64.8518 63.017 68.4864 59.3825 68.4864 54.899C68.4864 50.4156 64.8518 46.781 60.3684 46.781C55.8849 46.781 52.2504 50.4156 52.2504 54.899C52.2504 59.3825 55.8849 63.017 60.3684 63.017Z" fill="#B5CEFF"/>
<path d="M60.3684 63.837C55.4402 63.837 51.4304 59.8272 51.4304 54.899C51.4304 49.9708 55.4402 45.961 60.3684 45.961C65.2966 45.961 69.3064 49.9708 69.3064 54.899C69.3064 59.8272 65.2966 63.837 60.3684 63.837ZM60.3684 47.6051C56.3463 47.6051 53.0704 50.8769 53.0704 54.9031C53.0704 58.9293 56.3422 62.2011 60.3684 62.2011C64.3946 62.2011 67.6664 58.9293 67.6664 54.9031C67.6664 50.8769 64.3946 47.6051 60.3684 47.6051Z" fill="#2E6FF2"/>
<path d="M59.9215 57.9576C59.7124 57.9576 59.5115 57.8797 59.3598 57.7321L56.9531 55.4607C56.6251 55.1491 56.6087 54.6325 56.9203 54.3004C57.2319 53.9683 57.7485 53.956 58.0806 54.2676L59.8887 55.9773L62.8161 52.8736C63.1277 52.5456 63.6443 52.5292 63.9764 52.8408C64.3044 53.1524 64.3208 53.669 64.0092 54.0011L60.516 57.6993C60.3684 57.8592 60.1593 57.9494 59.942 57.9576C59.9338 57.9576 59.9256 57.9576 59.9174 57.9576H59.9215Z" fill="#2E6FF2"/>
</svg>
