<svg width="82" height="82" viewBox="0 0 82 82" fill="none" xmlns="http://www.w3.org/2000/svg">
<mask id="mask0_515_1644" style="mask-type:luminance" maskUnits="userSpaceOnUse" x="18" y="26" width="46" height="13">
<path d="M63.5295 31.201V36.9656C63.5295 38.0152 62.6972 38.8721 61.6558 38.9049C61.6312 38.909 61.6107 38.909 61.5861 38.909H45.2025V27.5274H36.7934V38.909H20.4139C20.3893 38.909 20.3688 38.909 20.3442 38.9049C19.3028 38.8721 18.4664 38.0152 18.4664 36.9656V31.201C18.4664 28.7205 20.4795 26.7074 22.9641 26.7074H59.0359C61.5164 26.7074 63.5295 28.7205 63.5295 31.201Z" fill="white"/>
</mask>
<g mask="url(#mask0_515_1644)">
<mask id="mask1_515_1644" style="mask-type:luminance" maskUnits="userSpaceOnUse" x="59" y="15" width="9" height="13">
<path d="M67.8509 15.4406H59.6509V27.7406H67.8509V15.4406Z" fill="white"/>
</mask>
<g mask="url(#mask1_515_1644)">
<path d="M59.6509 30.2703C61.048 30.2703 62.1806 29.1377 62.1806 27.7406C62.1806 26.3435 61.048 25.2109 59.6509 25.2109C58.2538 25.2109 57.1212 26.3435 57.1212 27.7406C57.1212 29.1377 58.2538 30.2703 59.6509 30.2703Z" fill="#2E6FF2"/>
</g>
<mask id="mask2_515_1644" style="mask-type:luminance" maskUnits="userSpaceOnUse" x="59" y="27" width="9" height="14">
<path d="M67.8509 27.7406H59.6509V40.0406H67.8509V27.7406Z" fill="white"/>
</mask>
<g mask="url(#mask2_515_1644)">
<path d="M59.6509 42.5703C61.048 42.5703 62.1806 41.4377 62.1806 40.0406C62.1806 38.6435 61.048 37.5109 59.6509 37.5109C58.2538 37.5109 57.1212 38.6435 57.1212 40.0406C57.1212 41.4377 58.2538 42.5703 59.6509 42.5703Z" fill="#2E6FF2"/>
<path d="M63.7509 36.4203C65.148 36.4203 66.2806 35.2877 66.2806 33.8906C66.2806 32.4935 65.148 31.3609 63.7509 31.3609C62.3538 31.3609 61.2212 32.4935 61.2212 33.8906C61.2212 35.2877 62.3538 36.4203 63.7509 36.4203Z" fill="#2E6FF2"/>
<path d="M59.6509 30.2703C61.048 30.2703 62.1806 29.1377 62.1806 27.7406C62.1806 26.3435 61.048 25.2109 59.6509 25.2109C58.2538 25.2109 57.1212 26.3435 57.1212 27.7406C57.1212 29.1377 58.2538 30.2703 59.6509 30.2703Z" fill="#B5CEFF"/>
</g>
<mask id="mask3_515_1644" style="mask-type:luminance" maskUnits="userSpaceOnUse" x="51" y="15" width="9" height="13">
<path d="M59.6509 15.4406H51.4509V27.7406H59.6509V15.4406Z" fill="white"/>
</mask>
<g mask="url(#mask3_515_1644)">
<path d="M59.6509 30.2703C61.048 30.2703 62.1806 29.1377 62.1806 27.7406C62.1806 26.3435 61.048 25.2109 59.6509 25.2109C58.2538 25.2109 57.1212 26.3435 57.1212 27.7406C57.1212 29.1377 58.2538 30.2703 59.6509 30.2703Z" fill="#B5CEFF"/>
<path d="M51.451 30.2703C52.8481 30.2703 53.9807 29.1377 53.9807 27.7406C53.9807 26.3435 52.8481 25.2109 51.451 25.2109C50.0538 25.2109 48.9213 26.3435 48.9213 27.7406C48.9213 29.1377 50.0538 30.2703 51.451 30.2703Z" fill="#B5CEFF"/>
</g>
<mask id="mask4_515_1644" style="mask-type:luminance" maskUnits="userSpaceOnUse" x="51" y="27" width="9" height="14">
<path d="M59.6509 27.7406H51.4509V40.0406H59.6509V27.7406Z" fill="white"/>
</mask>
<g mask="url(#mask4_515_1644)">
<path d="M59.6509 42.5703C61.048 42.5703 62.1806 41.4377 62.1806 40.0406C62.1806 38.6435 61.048 37.5109 59.6509 37.5109C58.2538 37.5109 57.1212 38.6435 57.1212 40.0406C57.1212 41.4377 58.2538 42.5703 59.6509 42.5703Z" fill="#B5CEFF"/>
<path d="M51.451 42.5703C52.8481 42.5703 53.9807 41.4377 53.9807 40.0406C53.9807 38.6435 52.8481 37.5109 51.451 37.5109C50.0538 37.5109 48.9213 38.6435 48.9213 40.0406C48.9213 41.4377 50.0538 42.5703 51.451 42.5703Z" fill="#B5CEFF"/>
<path d="M55.5509 36.4203C56.9481 36.4203 58.0806 35.2877 58.0806 33.8906C58.0806 32.4935 56.9481 31.3609 55.5509 31.3609C54.1538 31.3609 53.0212 32.4935 53.0212 33.8906C53.0212 35.2877 54.1538 36.4203 55.5509 36.4203Z" fill="#B5CEFF"/>
<path d="M59.6509 30.2703C61.048 30.2703 62.1806 29.1377 62.1806 27.7406C62.1806 26.3435 61.048 25.2109 59.6509 25.2109C58.2538 25.2109 57.1212 26.3435 57.1212 27.7406C57.1212 29.1377 58.2538 30.2703 59.6509 30.2703Z" fill="#B5CEFF"/>
<path d="M51.451 30.2703C52.8481 30.2703 53.9807 29.1377 53.9807 27.7406C53.9807 26.3435 52.8481 25.2109 51.451 25.2109C50.0538 25.2109 48.9213 26.3435 48.9213 27.7406C48.9213 29.1377 50.0538 30.2703 51.451 30.2703Z" fill="#B5CEFF"/>
</g>
<mask id="mask5_515_1644" style="mask-type:luminance" maskUnits="userSpaceOnUse" x="43" y="15" width="9" height="13">
<path d="M51.451 15.4406H43.251V27.7406H51.451V15.4406Z" fill="white"/>
</mask>
<g mask="url(#mask5_515_1644)">
<path d="M51.451 30.2703C52.8481 30.2703 53.9807 29.1377 53.9807 27.7406C53.9807 26.3435 52.8481 25.2109 51.451 25.2109C50.0538 25.2109 48.9213 26.3435 48.9213 27.7406C48.9213 29.1377 50.0538 30.2703 51.451 30.2703Z" fill="#B5CEFF"/>
<path d="M43.251 30.2703C44.6481 30.2703 45.7807 29.1377 45.7807 27.7406C45.7807 26.3435 44.6481 25.2109 43.251 25.2109C41.8539 25.2109 40.7213 26.3435 40.7213 27.7406C40.7213 29.1377 41.8539 30.2703 43.251 30.2703Z" fill="#B5CEFF"/>
</g>
<mask id="mask6_515_1644" style="mask-type:luminance" maskUnits="userSpaceOnUse" x="43" y="27" width="9" height="14">
<path d="M51.451 27.7406H43.251V40.0406H51.451V27.7406Z" fill="white"/>
</mask>
<g mask="url(#mask6_515_1644)">
<path d="M51.451 42.5703C52.8481 42.5703 53.9807 41.4377 53.9807 40.0406C53.9807 38.6435 52.8481 37.5109 51.451 37.5109C50.0538 37.5109 48.9213 38.6435 48.9213 40.0406C48.9213 41.4377 50.0538 42.5703 51.451 42.5703Z" fill="#B5CEFF"/>
<path d="M43.251 42.5703C44.6481 42.5703 45.7807 41.4377 45.7807 40.0406C45.7807 38.6435 44.6481 37.5109 43.251 37.5109C41.8539 37.5109 40.7213 38.6435 40.7213 40.0406C40.7213 41.4377 41.8539 42.5703 43.251 42.5703Z" fill="#B5CEFF"/>
<path d="M47.351 36.4203C48.7481 36.4203 49.8807 35.2877 49.8807 33.8906C49.8807 32.4935 48.7481 31.3609 47.351 31.3609C45.9539 31.3609 44.8213 32.4935 44.8213 33.8906C44.8213 35.2877 45.9539 36.4203 47.351 36.4203Z" fill="#B5CEFF"/>
<path d="M51.451 30.2703C52.8481 30.2703 53.9807 29.1377 53.9807 27.7406C53.9807 26.3435 52.8481 25.2109 51.451 25.2109C50.0538 25.2109 48.9213 26.3435 48.9213 27.7406C48.9213 29.1377 50.0538 30.2703 51.451 30.2703Z" fill="#B5CEFF"/>
<path d="M43.251 30.2703C44.6481 30.2703 45.7807 29.1377 45.7807 27.7406C45.7807 26.3435 44.6481 25.2109 43.251 25.2109C41.8539 25.2109 40.7213 26.3435 40.7213 27.7406C40.7213 29.1377 41.8539 30.2703 43.251 30.2703Z" fill="#B5CEFF"/>
</g>
<mask id="mask7_515_1644" style="mask-type:luminance" maskUnits="userSpaceOnUse" x="35" y="15" width="9" height="13">
<path d="M43.2509 15.4406H35.0509V27.7406H43.2509V15.4406Z" fill="white"/>
</mask>
<g mask="url(#mask7_515_1644)">
<path d="M43.2509 30.2703C44.648 30.2703 45.7806 29.1377 45.7806 27.7406C45.7806 26.3435 44.648 25.2109 43.2509 25.2109C41.8538 25.2109 40.7212 26.3435 40.7212 27.7406C40.7212 29.1377 41.8538 30.2703 43.2509 30.2703Z" fill="#B5CEFF"/>
<path d="M35.0509 30.2703C36.4481 30.2703 37.5806 29.1377 37.5806 27.7406C37.5806 26.3435 36.4481 25.2109 35.0509 25.2109C33.6538 25.2109 32.5212 26.3435 32.5212 27.7406C32.5212 29.1377 33.6538 30.2703 35.0509 30.2703Z" fill="#B5CEFF"/>
</g>
<mask id="mask8_515_1644" style="mask-type:luminance" maskUnits="userSpaceOnUse" x="35" y="27" width="9" height="14">
<path d="M43.2509 27.7406H35.0509V40.0406H43.2509V27.7406Z" fill="white"/>
</mask>
<g mask="url(#mask8_515_1644)">
<path d="M43.2509 42.5703C44.648 42.5703 45.7806 41.4377 45.7806 40.0406C45.7806 38.6435 44.648 37.5109 43.2509 37.5109C41.8538 37.5109 40.7212 38.6435 40.7212 40.0406C40.7212 41.4377 41.8538 42.5703 43.2509 42.5703Z" fill="#B5CEFF"/>
<path d="M35.0509 42.5703C36.4481 42.5703 37.5806 41.4377 37.5806 40.0406C37.5806 38.6435 36.4481 37.5109 35.0509 37.5109C33.6538 37.5109 32.5212 38.6435 32.5212 40.0406C32.5212 41.4377 33.6538 42.5703 35.0509 42.5703Z" fill="#B5CEFF"/>
<path d="M39.1509 36.4203C40.548 36.4203 41.6806 35.2877 41.6806 33.8906C41.6806 32.4935 40.548 31.3609 39.1509 31.3609C37.7538 31.3609 36.6212 32.4935 36.6212 33.8906C36.6212 35.2877 37.7538 36.4203 39.1509 36.4203Z" fill="#B5CEFF"/>
<path d="M43.2509 30.2703C44.648 30.2703 45.7806 29.1377 45.7806 27.7406C45.7806 26.3435 44.648 25.2109 43.2509 25.2109C41.8538 25.2109 40.7212 26.3435 40.7212 27.7406C40.7212 29.1377 41.8538 30.2703 43.2509 30.2703Z" fill="#B5CEFF"/>
<path d="M35.0509 30.2703C36.4481 30.2703 37.5806 29.1377 37.5806 27.7406C37.5806 26.3435 36.4481 25.2109 35.0509 25.2109C33.6538 25.2109 32.5212 26.3435 32.5212 27.7406C32.5212 29.1377 33.6538 30.2703 35.0509 30.2703Z" fill="#B5CEFF"/>
</g>
<mask id="mask9_515_1644" style="mask-type:luminance" maskUnits="userSpaceOnUse" x="26" y="15" width="10" height="13">
<path d="M35.051 15.4406H26.851V27.7406H35.051V15.4406Z" fill="white"/>
</mask>
<g mask="url(#mask9_515_1644)">
<path d="M35.0509 30.2703C36.4481 30.2703 37.5806 29.1377 37.5806 27.7406C37.5806 26.3435 36.4481 25.2109 35.0509 25.2109C33.6538 25.2109 32.5212 26.3435 32.5212 27.7406C32.5212 29.1377 33.6538 30.2703 35.0509 30.2703Z" fill="#B5CEFF"/>
<path d="M26.851 30.2703C28.2481 30.2703 29.3807 29.1377 29.3807 27.7406C29.3807 26.3435 28.2481 25.2109 26.851 25.2109C25.4539 25.2109 24.3213 26.3435 24.3213 27.7406C24.3213 29.1377 25.4539 30.2703 26.851 30.2703Z" fill="#B5CEFF"/>
</g>
<mask id="mask10_515_1644" style="mask-type:luminance" maskUnits="userSpaceOnUse" x="26" y="27" width="10" height="14">
<path d="M35.051 27.7406H26.851V40.0406H35.051V27.7406Z" fill="white"/>
</mask>
<g mask="url(#mask10_515_1644)">
<path d="M35.0509 42.5703C36.4481 42.5703 37.5806 41.4377 37.5806 40.0406C37.5806 38.6435 36.4481 37.5109 35.0509 37.5109C33.6538 37.5109 32.5212 38.6435 32.5212 40.0406C32.5212 41.4377 33.6538 42.5703 35.0509 42.5703Z" fill="#B5CEFF"/>
<path d="M26.851 42.5703C28.2481 42.5703 29.3807 41.4377 29.3807 40.0406C29.3807 38.6435 28.2481 37.5109 26.851 37.5109C25.4539 37.5109 24.3213 38.6435 24.3213 40.0406C24.3213 41.4377 25.4539 42.5703 26.851 42.5703Z" fill="#B5CEFF"/>
<path d="M30.951 36.4203C32.3481 36.4203 33.4807 35.2877 33.4807 33.8906C33.4807 32.4935 32.3481 31.3609 30.951 31.3609C29.5538 31.3609 28.4213 32.4935 28.4213 33.8906C28.4213 35.2877 29.5538 36.4203 30.951 36.4203Z" fill="#B5CEFF"/>
<path d="M35.0509 30.2703C36.4481 30.2703 37.5806 29.1377 37.5806 27.7406C37.5806 26.3435 36.4481 25.2109 35.0509 25.2109C33.6538 25.2109 32.5212 26.3435 32.5212 27.7406C32.5212 29.1377 33.6538 30.2703 35.0509 30.2703Z" fill="#B5CEFF"/>
<path d="M26.851 30.2703C28.2481 30.2703 29.3807 29.1377 29.3807 27.7406C29.3807 26.3435 28.2481 25.2109 26.851 25.2109C25.4539 25.2109 24.3213 26.3435 24.3213 27.7406C24.3213 29.1377 25.4539 30.2703 26.851 30.2703Z" fill="#B5CEFF"/>
</g>
<mask id="mask11_515_1644" style="mask-type:luminance" maskUnits="userSpaceOnUse" x="18" y="15" width="9" height="13">
<path d="M26.8509 15.4406H18.6509V27.7406H26.8509V15.4406Z" fill="white"/>
</mask>
<g mask="url(#mask11_515_1644)">
<path d="M26.8509 30.2703C28.248 30.2703 29.3806 29.1377 29.3806 27.7406C29.3806 26.3435 28.248 25.2109 26.8509 25.2109C25.4538 25.2109 24.3212 26.3435 24.3212 27.7406C24.3212 29.1377 25.4538 30.2703 26.8509 30.2703Z" fill="#B5CEFF"/>
<path d="M18.6509 30.2703C20.048 30.2703 21.1806 29.1377 21.1806 27.7406C21.1806 26.3435 20.048 25.2109 18.6509 25.2109C17.2538 25.2109 16.1212 26.3435 16.1212 27.7406C16.1212 29.1377 17.2538 30.2703 18.6509 30.2703Z" fill="#B5CEFF"/>
</g>
<mask id="mask12_515_1644" style="mask-type:luminance" maskUnits="userSpaceOnUse" x="18" y="27" width="9" height="14">
<path d="M26.8509 27.7406H18.6509V40.0406H26.8509V27.7406Z" fill="white"/>
</mask>
<g mask="url(#mask12_515_1644)">
<path d="M26.8509 42.5703C28.248 42.5703 29.3806 41.4377 29.3806 40.0406C29.3806 38.6435 28.248 37.5109 26.8509 37.5109C25.4538 37.5109 24.3212 38.6435 24.3212 40.0406C24.3212 41.4377 25.4538 42.5703 26.8509 42.5703Z" fill="#B5CEFF"/>
<path d="M18.6509 42.5703C20.048 42.5703 21.1806 41.4377 21.1806 40.0406C21.1806 38.6435 20.048 37.5109 18.6509 37.5109C17.2538 37.5109 16.1212 38.6435 16.1212 40.0406C16.1212 41.4377 17.2538 42.5703 18.6509 42.5703Z" fill="#B5CEFF"/>
<path d="M22.7509 36.4203C24.148 36.4203 25.2806 35.2877 25.2806 33.8906C25.2806 32.4935 24.148 31.3609 22.7509 31.3609C21.3538 31.3609 20.2212 32.4935 20.2212 33.8906C20.2212 35.2877 21.3538 36.4203 22.7509 36.4203Z" fill="#B5CEFF"/>
<path d="M26.8509 30.2703C28.248 30.2703 29.3806 29.1377 29.3806 27.7406C29.3806 26.3435 28.248 25.2109 26.8509 25.2109C25.4538 25.2109 24.3212 26.3435 24.3212 27.7406C24.3212 29.1377 25.4538 30.2703 26.8509 30.2703Z" fill="#B5CEFF"/>
<path d="M18.6509 30.2703C20.048 30.2703 21.1806 29.1377 21.1806 27.7406C21.1806 26.3435 20.048 25.2109 18.6509 25.2109C17.2538 25.2109 16.1212 26.3435 16.1212 27.7406C16.1212 29.1377 17.2538 30.2703 18.6509 30.2703Z" fill="#B5CEFF"/>
</g>
<mask id="mask13_515_1644" style="mask-type:luminance" maskUnits="userSpaceOnUse" x="10" y="15" width="9" height="13">
<path d="M18.6509 15.4406H10.4509V27.7406H18.6509V15.4406Z" fill="white"/>
</mask>
<g mask="url(#mask13_515_1644)">
<path d="M18.6509 30.2703C20.048 30.2703 21.1806 29.1377 21.1806 27.7406C21.1806 26.3435 20.048 25.2109 18.6509 25.2109C17.2538 25.2109 16.1212 26.3435 16.1212 27.7406C16.1212 29.1377 17.2538 30.2703 18.6509 30.2703Z" fill="#B5CEFF"/>
</g>
<mask id="mask14_515_1644" style="mask-type:luminance" maskUnits="userSpaceOnUse" x="10" y="27" width="9" height="14">
<path d="M18.6509 27.7406H10.4509V40.0406H18.6509V27.7406Z" fill="white"/>
</mask>
<g mask="url(#mask14_515_1644)">
<path d="M18.6509 42.5703C20.048 42.5703 21.1806 41.4377 21.1806 40.0406C21.1806 38.6435 20.048 37.5109 18.6509 37.5109C17.2538 37.5109 16.1212 38.6435 16.1212 40.0406C16.1212 41.4377 17.2538 42.5703 18.6509 42.5703Z" fill="#B5CEFF"/>
<path d="M18.6509 30.2703C20.048 30.2703 21.1806 29.1377 21.1806 27.7406C21.1806 26.3435 20.048 25.2109 18.6509 25.2109C17.2538 25.2109 16.1212 26.3435 16.1212 27.7406C16.1212 29.1377 17.2538 30.2703 18.6509 30.2703Z" fill="#B5CEFF"/>
</g>
</g>
<mask id="mask15_515_1644" style="mask-type:luminance" maskUnits="userSpaceOnUse" x="21" y="38" width="40" height="23">
<path d="M60.8358 38.909V56.8465C60.8358 59.04 59.0564 60.8153 56.8629 60.8153H25.133C22.9395 60.8153 21.1642 59.04 21.1642 56.8465V38.909H36.7934V59.9953H45.2025V38.909H60.8358Z" fill="white"/>
</mask>
<g mask="url(#mask15_515_1644)">
<mask id="mask16_515_1644" style="mask-type:luminance" maskUnits="userSpaceOnUse" x="59" y="27" width="9" height="14">
<path d="M67.8509 27.7406H59.6509V40.0406H67.8509V27.7406Z" fill="white"/>
</mask>
<g mask="url(#mask16_515_1644)">
<path d="M59.6509 42.5703C61.048 42.5703 62.1806 41.4377 62.1806 40.0406C62.1806 38.6435 61.048 37.5109 59.6509 37.5109C58.2538 37.5109 57.1212 38.6435 57.1212 40.0406C57.1212 41.4377 58.2538 42.5703 59.6509 42.5703Z" fill="#B5CEFF"/>
</g>
<mask id="mask17_515_1644" style="mask-type:luminance" maskUnits="userSpaceOnUse" x="59" y="40" width="9" height="13">
<path d="M67.8509 40.0406H59.6509V52.3406H67.8509V40.0406Z" fill="white"/>
</mask>
<g mask="url(#mask17_515_1644)">
<path d="M59.6509 54.8703C61.048 54.8703 62.1806 53.7377 62.1806 52.3406C62.1806 50.9434 61.048 49.8109 59.6509 49.8109C58.2538 49.8109 57.1212 50.9434 57.1212 52.3406C57.1212 53.7377 58.2538 54.8703 59.6509 54.8703Z" fill="#B5CEFF"/>
<path d="M59.6509 42.5703C61.048 42.5703 62.1806 41.4377 62.1806 40.0406C62.1806 38.6435 61.048 37.5109 59.6509 37.5109C58.2538 37.5109 57.1212 38.6435 57.1212 40.0406C57.1212 41.4377 58.2538 42.5703 59.6509 42.5703Z" fill="#B5CEFF"/>
</g>
<mask id="mask18_515_1644" style="mask-type:luminance" maskUnits="userSpaceOnUse" x="59" y="52" width="9" height="13">
<path d="M67.8509 52.3406H59.6509V64.6406H67.8509V52.3406Z" fill="white"/>
</mask>
<g mask="url(#mask18_515_1644)">
<path d="M59.6509 54.8703C61.048 54.8703 62.1806 53.7377 62.1806 52.3406C62.1806 50.9434 61.048 49.8109 59.6509 49.8109C58.2538 49.8109 57.1212 50.9434 57.1212 52.3406C57.1212 53.7377 58.2538 54.8703 59.6509 54.8703Z" fill="#B5CEFF"/>
</g>
<mask id="mask19_515_1644" style="mask-type:luminance" maskUnits="userSpaceOnUse" x="51" y="27" width="9" height="14">
<path d="M59.6509 27.7406H51.4509V40.0406H59.6509V27.7406Z" fill="white"/>
</mask>
<g mask="url(#mask19_515_1644)">
<path d="M59.6509 42.5703C61.048 42.5703 62.1806 41.4377 62.1806 40.0406C62.1806 38.6435 61.048 37.5109 59.6509 37.5109C58.2538 37.5109 57.1212 38.6435 57.1212 40.0406C57.1212 41.4377 58.2538 42.5703 59.6509 42.5703Z" fill="#B5CEFF"/>
<path d="M51.451 42.5703C52.8481 42.5703 53.9807 41.4377 53.9807 40.0406C53.9807 38.6435 52.8481 37.5109 51.451 37.5109C50.0538 37.5109 48.9213 38.6435 48.9213 40.0406C48.9213 41.4377 50.0538 42.5703 51.451 42.5703Z" fill="#B5CEFF"/>
</g>
<mask id="mask20_515_1644" style="mask-type:luminance" maskUnits="userSpaceOnUse" x="51" y="40" width="9" height="13">
<path d="M59.6509 40.0406H51.4509V52.3406H59.6509V40.0406Z" fill="white"/>
</mask>
<g mask="url(#mask20_515_1644)">
<path d="M59.6509 54.8703C61.048 54.8703 62.1806 53.7377 62.1806 52.3406C62.1806 50.9434 61.048 49.8109 59.6509 49.8109C58.2538 49.8109 57.1212 50.9434 57.1212 52.3406C57.1212 53.7377 58.2538 54.8703 59.6509 54.8703Z" fill="#B5CEFF"/>
<path d="M51.451 54.8703C52.8481 54.8703 53.9807 53.7377 53.9807 52.3406C53.9807 50.9434 52.8481 49.8109 51.451 49.8109C50.0538 49.8109 48.9213 50.9434 48.9213 52.3406C48.9213 53.7377 50.0538 54.8703 51.451 54.8703Z" fill="#B5CEFF"/>
<path d="M55.5509 48.7203C56.9481 48.7203 58.0806 47.5877 58.0806 46.1906C58.0806 44.7935 56.9481 43.6609 55.5509 43.6609C54.1538 43.6609 53.0212 44.7935 53.0212 46.1906C53.0212 47.5877 54.1538 48.7203 55.5509 48.7203Z" fill="#B5CEFF"/>
<path d="M59.6509 42.5703C61.048 42.5703 62.1806 41.4377 62.1806 40.0406C62.1806 38.6435 61.048 37.5109 59.6509 37.5109C58.2538 37.5109 57.1212 38.6435 57.1212 40.0406C57.1212 41.4377 58.2538 42.5703 59.6509 42.5703Z" fill="#B5CEFF"/>
<path d="M51.451 42.5703C52.8481 42.5703 53.9807 41.4377 53.9807 40.0406C53.9807 38.6435 52.8481 37.5109 51.451 37.5109C50.0538 37.5109 48.9213 38.6435 48.9213 40.0406C48.9213 41.4377 50.0538 42.5703 51.451 42.5703Z" fill="#B5CEFF"/>
</g>
<mask id="mask21_515_1644" style="mask-type:luminance" maskUnits="userSpaceOnUse" x="51" y="52" width="9" height="13">
<path d="M59.6509 52.3406H51.4509V64.6406H59.6509V52.3406Z" fill="white"/>
</mask>
<g mask="url(#mask21_515_1644)">
<path d="M55.5509 61.0203C56.9481 61.0203 58.0806 59.8877 58.0806 58.4906C58.0806 57.0935 56.9481 55.9609 55.5509 55.9609C54.1538 55.9609 53.0212 57.0935 53.0212 58.4906C53.0212 59.8877 54.1538 61.0203 55.5509 61.0203Z" fill="#B5CEFF"/>
<path d="M59.6509 54.8703C61.048 54.8703 62.1806 53.7377 62.1806 52.3406C62.1806 50.9434 61.048 49.8109 59.6509 49.8109C58.2538 49.8109 57.1212 50.9434 57.1212 52.3406C57.1212 53.7377 58.2538 54.8703 59.6509 54.8703Z" fill="#B5CEFF"/>
<path d="M51.451 54.8703C52.8481 54.8703 53.9807 53.7377 53.9807 52.3406C53.9807 50.9434 52.8481 49.8109 51.451 49.8109C50.0538 49.8109 48.9213 50.9434 48.9213 52.3406C48.9213 53.7377 50.0538 54.8703 51.451 54.8703Z" fill="#B5CEFF"/>
</g>
<mask id="mask22_515_1644" style="mask-type:luminance" maskUnits="userSpaceOnUse" x="43" y="27" width="9" height="14">
<path d="M51.4509 27.7406H43.2509V40.0406H51.4509V27.7406Z" fill="white"/>
</mask>
<g mask="url(#mask22_515_1644)">
<path d="M51.4508 42.5703C52.848 42.5703 53.9805 41.4377 53.9805 40.0406C53.9805 38.6435 52.848 37.5109 51.4508 37.5109C50.0537 37.5109 48.9211 38.6435 48.9211 40.0406C48.9211 41.4377 50.0537 42.5703 51.4508 42.5703Z" fill="#B5CEFF"/>
<path d="M43.2509 42.5703C44.648 42.5703 45.7806 41.4377 45.7806 40.0406C45.7806 38.6435 44.648 37.5109 43.2509 37.5109C41.8538 37.5109 40.7212 38.6435 40.7212 40.0406C40.7212 41.4377 41.8538 42.5703 43.2509 42.5703Z" fill="#B5CEFF"/>
</g>
<mask id="mask23_515_1644" style="mask-type:luminance" maskUnits="userSpaceOnUse" x="43" y="40" width="9" height="13">
<path d="M51.4509 40.0406H43.2509V52.3406H51.4509V40.0406Z" fill="white"/>
</mask>
<g mask="url(#mask23_515_1644)">
<path d="M51.4508 54.8703C52.848 54.8703 53.9805 53.7377 53.9805 52.3406C53.9805 50.9434 52.848 49.8109 51.4508 49.8109C50.0537 49.8109 48.9211 50.9434 48.9211 52.3406C48.9211 53.7377 50.0537 54.8703 51.4508 54.8703Z" fill="#B5CEFF"/>
<path d="M43.2509 54.8703C44.648 54.8703 45.7806 53.7377 45.7806 52.3406C45.7806 50.9434 44.648 49.8109 43.2509 49.8109C41.8538 49.8109 40.7212 50.9434 40.7212 52.3406C40.7212 53.7377 41.8538 54.8703 43.2509 54.8703Z" fill="#B5CEFF"/>
<path d="M47.3509 48.7203C48.748 48.7203 49.8806 47.5877 49.8806 46.1906C49.8806 44.7935 48.748 43.6609 47.3509 43.6609C45.9538 43.6609 44.8212 44.7935 44.8212 46.1906C44.8212 47.5877 45.9538 48.7203 47.3509 48.7203Z" fill="#B5CEFF"/>
<path d="M51.4508 42.5703C52.848 42.5703 53.9805 41.4377 53.9805 40.0406C53.9805 38.6435 52.848 37.5109 51.4508 37.5109C50.0537 37.5109 48.9211 38.6435 48.9211 40.0406C48.9211 41.4377 50.0537 42.5703 51.4508 42.5703Z" fill="#B5CEFF"/>
<path d="M43.2509 42.5703C44.648 42.5703 45.7806 41.4377 45.7806 40.0406C45.7806 38.6435 44.648 37.5109 43.2509 37.5109C41.8538 37.5109 40.7212 38.6435 40.7212 40.0406C40.7212 41.4377 41.8538 42.5703 43.2509 42.5703Z" fill="#B5CEFF"/>
</g>
<mask id="mask24_515_1644" style="mask-type:luminance" maskUnits="userSpaceOnUse" x="43" y="52" width="9" height="13">
<path d="M51.4509 52.3406H43.2509V64.6406H51.4509V52.3406Z" fill="white"/>
</mask>
<g mask="url(#mask24_515_1644)">
<path d="M47.3509 61.0203C48.748 61.0203 49.8806 59.8877 49.8806 58.4906C49.8806 57.0935 48.748 55.9609 47.3509 55.9609C45.9538 55.9609 44.8212 57.0935 44.8212 58.4906C44.8212 59.8877 45.9538 61.0203 47.3509 61.0203Z" fill="#B5CEFF"/>
<path d="M51.4508 54.8703C52.848 54.8703 53.9805 53.7377 53.9805 52.3406C53.9805 50.9434 52.848 49.8109 51.4508 49.8109C50.0537 49.8109 48.9211 50.9434 48.9211 52.3406C48.9211 53.7377 50.0537 54.8703 51.4508 54.8703Z" fill="#B5CEFF"/>
<path d="M43.2509 54.8703C44.648 54.8703 45.7806 53.7377 45.7806 52.3406C45.7806 50.9434 44.648 49.8109 43.2509 49.8109C41.8538 49.8109 40.7212 50.9434 40.7212 52.3406C40.7212 53.7377 41.8538 54.8703 43.2509 54.8703Z" fill="#B5CEFF"/>
</g>
<mask id="mask25_515_1644" style="mask-type:luminance" maskUnits="userSpaceOnUse" x="35" y="27" width="9" height="14">
<path d="M43.2509 27.7406H35.0509V40.0406H43.2509V27.7406Z" fill="white"/>
</mask>
<g mask="url(#mask25_515_1644)">
<path d="M43.2509 42.5703C44.648 42.5703 45.7806 41.4377 45.7806 40.0406C45.7806 38.6435 44.648 37.5109 43.2509 37.5109C41.8538 37.5109 40.7212 38.6435 40.7212 40.0406C40.7212 41.4377 41.8538 42.5703 43.2509 42.5703Z" fill="#B5CEFF"/>
<path d="M35.0509 42.5703C36.4481 42.5703 37.5806 41.4377 37.5806 40.0406C37.5806 38.6435 36.4481 37.5109 35.0509 37.5109C33.6538 37.5109 32.5212 38.6435 32.5212 40.0406C32.5212 41.4377 33.6538 42.5703 35.0509 42.5703Z" fill="#B5CEFF"/>
</g>
<mask id="mask26_515_1644" style="mask-type:luminance" maskUnits="userSpaceOnUse" x="35" y="40" width="9" height="13">
<path d="M43.2509 40.0406H35.0509V52.3406H43.2509V40.0406Z" fill="white"/>
</mask>
<g mask="url(#mask26_515_1644)">
<path d="M43.2509 54.8703C44.648 54.8703 45.7806 53.7377 45.7806 52.3406C45.7806 50.9434 44.648 49.8109 43.2509 49.8109C41.8538 49.8109 40.7212 50.9434 40.7212 52.3406C40.7212 53.7377 41.8538 54.8703 43.2509 54.8703Z" fill="#B5CEFF"/>
<path d="M35.0509 54.8703C36.4481 54.8703 37.5806 53.7377 37.5806 52.3406C37.5806 50.9434 36.4481 49.8109 35.0509 49.8109C33.6538 49.8109 32.5212 50.9434 32.5212 52.3406C32.5212 53.7377 33.6538 54.8703 35.0509 54.8703Z" fill="#B5CEFF"/>
<path d="M39.1509 48.7203C40.548 48.7203 41.6806 47.5877 41.6806 46.1906C41.6806 44.7935 40.548 43.6609 39.1509 43.6609C37.7538 43.6609 36.6212 44.7935 36.6212 46.1906C36.6212 47.5877 37.7538 48.7203 39.1509 48.7203Z" fill="#B5CEFF"/>
<path d="M43.2509 42.5703C44.648 42.5703 45.7806 41.4377 45.7806 40.0406C45.7806 38.6435 44.648 37.5109 43.2509 37.5109C41.8538 37.5109 40.7212 38.6435 40.7212 40.0406C40.7212 41.4377 41.8538 42.5703 43.2509 42.5703Z" fill="#B5CEFF"/>
<path d="M35.0509 42.5703C36.4481 42.5703 37.5806 41.4377 37.5806 40.0406C37.5806 38.6435 36.4481 37.5109 35.0509 37.5109C33.6538 37.5109 32.5212 38.6435 32.5212 40.0406C32.5212 41.4377 33.6538 42.5703 35.0509 42.5703Z" fill="#B5CEFF"/>
</g>
<mask id="mask27_515_1644" style="mask-type:luminance" maskUnits="userSpaceOnUse" x="35" y="52" width="9" height="13">
<path d="M43.2509 52.3406H35.0509V64.6406H43.2509V52.3406Z" fill="white"/>
</mask>
<g mask="url(#mask27_515_1644)">
<path d="M39.1509 61.0203C40.548 61.0203 41.6806 59.8877 41.6806 58.4906C41.6806 57.0935 40.548 55.9609 39.1509 55.9609C37.7538 55.9609 36.6212 57.0935 36.6212 58.4906C36.6212 59.8877 37.7538 61.0203 39.1509 61.0203Z" fill="#B5CEFF"/>
<path d="M43.2509 54.8703C44.648 54.8703 45.7806 53.7377 45.7806 52.3406C45.7806 50.9434 44.648 49.8109 43.2509 49.8109C41.8538 49.8109 40.7212 50.9434 40.7212 52.3406C40.7212 53.7377 41.8538 54.8703 43.2509 54.8703Z" fill="#B5CEFF"/>
<path d="M35.0509 54.8703C36.4481 54.8703 37.5806 53.7377 37.5806 52.3406C37.5806 50.9434 36.4481 49.8109 35.0509 49.8109C33.6538 49.8109 32.5212 50.9434 32.5212 52.3406C32.5212 53.7377 33.6538 54.8703 35.0509 54.8703Z" fill="#B5CEFF"/>
</g>
<mask id="mask28_515_1644" style="mask-type:luminance" maskUnits="userSpaceOnUse" x="26" y="27" width="10" height="14">
<path d="M35.0508 27.7406H26.8508V40.0406H35.0508V27.7406Z" fill="white"/>
</mask>
<g mask="url(#mask28_515_1644)">
<path d="M35.0508 42.5703C36.4479 42.5703 37.5805 41.4377 37.5805 40.0406C37.5805 38.6435 36.4479 37.5109 35.0508 37.5109C33.6537 37.5109 32.5211 38.6435 32.5211 40.0406C32.5211 41.4377 33.6537 42.5703 35.0508 42.5703Z" fill="#B5CEFF"/>
<path d="M26.8509 42.5703C28.248 42.5703 29.3806 41.4377 29.3806 40.0406C29.3806 38.6435 28.248 37.5109 26.8509 37.5109C25.4538 37.5109 24.3212 38.6435 24.3212 40.0406C24.3212 41.4377 25.4538 42.5703 26.8509 42.5703Z" fill="#B5CEFF"/>
</g>
<mask id="mask29_515_1644" style="mask-type:luminance" maskUnits="userSpaceOnUse" x="26" y="40" width="10" height="13">
<path d="M35.0508 40.0406H26.8508V52.3406H35.0508V40.0406Z" fill="white"/>
</mask>
<g mask="url(#mask29_515_1644)">
<path d="M35.0508 54.8703C36.4479 54.8703 37.5805 53.7377 37.5805 52.3406C37.5805 50.9434 36.4479 49.8109 35.0508 49.8109C33.6537 49.8109 32.5211 50.9434 32.5211 52.3406C32.5211 53.7377 33.6537 54.8703 35.0508 54.8703Z" fill="#B5CEFF"/>
<path d="M26.8509 54.8703C28.248 54.8703 29.3806 53.7377 29.3806 52.3406C29.3806 50.9434 28.248 49.8109 26.8509 49.8109C25.4538 49.8109 24.3212 50.9434 24.3212 52.3406C24.3212 53.7377 25.4538 54.8703 26.8509 54.8703Z" fill="#B5CEFF"/>
<path d="M30.9508 48.7203C32.348 48.7203 33.4805 47.5877 33.4805 46.1906C33.4805 44.7935 32.348 43.6609 30.9508 43.6609C29.5537 43.6609 28.4211 44.7935 28.4211 46.1906C28.4211 47.5877 29.5537 48.7203 30.9508 48.7203Z" fill="#B5CEFF"/>
<path d="M35.0508 42.5703C36.4479 42.5703 37.5805 41.4377 37.5805 40.0406C37.5805 38.6435 36.4479 37.5109 35.0508 37.5109C33.6537 37.5109 32.5211 38.6435 32.5211 40.0406C32.5211 41.4377 33.6537 42.5703 35.0508 42.5703Z" fill="#B5CEFF"/>
<path d="M26.8509 42.5703C28.248 42.5703 29.3806 41.4377 29.3806 40.0406C29.3806 38.6435 28.248 37.5109 26.8509 37.5109C25.4538 37.5109 24.3212 38.6435 24.3212 40.0406C24.3212 41.4377 25.4538 42.5703 26.8509 42.5703Z" fill="#B5CEFF"/>
</g>
<mask id="mask30_515_1644" style="mask-type:luminance" maskUnits="userSpaceOnUse" x="26" y="52" width="10" height="13">
<path d="M35.0508 52.3406H26.8508V64.6406H35.0508V52.3406Z" fill="white"/>
</mask>
<g mask="url(#mask30_515_1644)">
<path d="M30.9508 61.0203C32.348 61.0203 33.4805 59.8877 33.4805 58.4906C33.4805 57.0935 32.348 55.9609 30.9508 55.9609C29.5537 55.9609 28.4211 57.0935 28.4211 58.4906C28.4211 59.8877 29.5537 61.0203 30.9508 61.0203Z" fill="#B5CEFF"/>
<path d="M35.0508 54.8703C36.4479 54.8703 37.5805 53.7377 37.5805 52.3406C37.5805 50.9434 36.4479 49.8109 35.0508 49.8109C33.6537 49.8109 32.5211 50.9434 32.5211 52.3406C32.5211 53.7377 33.6537 54.8703 35.0508 54.8703Z" fill="#B5CEFF"/>
<path d="M26.8509 54.8703C28.248 54.8703 29.3806 53.7377 29.3806 52.3406C29.3806 50.9434 28.248 49.8109 26.8509 49.8109C25.4538 49.8109 24.3212 50.9434 24.3212 52.3406C24.3212 53.7377 25.4538 54.8703 26.8509 54.8703Z" fill="#B5CEFF"/>
</g>
<mask id="mask31_515_1644" style="mask-type:luminance" maskUnits="userSpaceOnUse" x="18" y="27" width="9" height="14">
<path d="M26.8509 27.7406H18.6509V40.0406H26.8509V27.7406Z" fill="white"/>
</mask>
<g mask="url(#mask31_515_1644)">
<path d="M26.8509 42.5703C28.248 42.5703 29.3806 41.4377 29.3806 40.0406C29.3806 38.6435 28.248 37.5109 26.8509 37.5109C25.4538 37.5109 24.3212 38.6435 24.3212 40.0406C24.3212 41.4377 25.4538 42.5703 26.8509 42.5703Z" fill="#B5CEFF"/>
<path d="M18.6509 42.5703C20.048 42.5703 21.1806 41.4377 21.1806 40.0406C21.1806 38.6435 20.048 37.5109 18.6509 37.5109C17.2538 37.5109 16.1212 38.6435 16.1212 40.0406C16.1212 41.4377 17.2538 42.5703 18.6509 42.5703Z" fill="#B5CEFF"/>
</g>
<mask id="mask32_515_1644" style="mask-type:luminance" maskUnits="userSpaceOnUse" x="18" y="40" width="9" height="13">
<path d="M26.8509 40.0406H18.6509V52.3406H26.8509V40.0406Z" fill="white"/>
</mask>
<g mask="url(#mask32_515_1644)">
<path d="M26.8509 54.8703C28.248 54.8703 29.3806 53.7377 29.3806 52.3406C29.3806 50.9434 28.248 49.8109 26.8509 49.8109C25.4538 49.8109 24.3212 50.9434 24.3212 52.3406C24.3212 53.7377 25.4538 54.8703 26.8509 54.8703Z" fill="#B5CEFF"/>
<path d="M18.6509 54.8703C20.048 54.8703 21.1806 53.7377 21.1806 52.3406C21.1806 50.9434 20.048 49.8109 18.6509 49.8109C17.2538 49.8109 16.1212 50.9434 16.1212 52.3406C16.1212 53.7377 17.2538 54.8703 18.6509 54.8703Z" fill="#B5CEFF"/>
<path d="M22.7509 48.7203C24.148 48.7203 25.2806 47.5877 25.2806 46.1906C25.2806 44.7935 24.148 43.6609 22.7509 43.6609C21.3538 43.6609 20.2212 44.7935 20.2212 46.1906C20.2212 47.5877 21.3538 48.7203 22.7509 48.7203Z" fill="#B5CEFF"/>
<path d="M26.8509 42.5703C28.248 42.5703 29.3806 41.4377 29.3806 40.0406C29.3806 38.6435 28.248 37.5109 26.8509 37.5109C25.4538 37.5109 24.3212 38.6435 24.3212 40.0406C24.3212 41.4377 25.4538 42.5703 26.8509 42.5703Z" fill="#B5CEFF"/>
<path d="M18.6509 42.5703C20.048 42.5703 21.1806 41.4377 21.1806 40.0406C21.1806 38.6435 20.048 37.5109 18.6509 37.5109C17.2538 37.5109 16.1212 38.6435 16.1212 40.0406C16.1212 41.4377 17.2538 42.5703 18.6509 42.5703Z" fill="#B5CEFF"/>
</g>
<mask id="mask33_515_1644" style="mask-type:luminance" maskUnits="userSpaceOnUse" x="18" y="52" width="9" height="13">
<path d="M26.8509 52.3406H18.6509V64.6406H26.8509V52.3406Z" fill="white"/>
</mask>
<g mask="url(#mask33_515_1644)">
<path d="M22.7509 61.0203C24.148 61.0203 25.2806 59.8877 25.2806 58.4906C25.2806 57.0935 24.148 55.9609 22.7509 55.9609C21.3538 55.9609 20.2212 57.0935 20.2212 58.4906C20.2212 59.8877 21.3538 61.0203 22.7509 61.0203Z" fill="#B5CEFF"/>
<path d="M26.8509 54.8703C28.248 54.8703 29.3806 53.7377 29.3806 52.3406C29.3806 50.9434 28.248 49.8109 26.8509 49.8109C25.4538 49.8109 24.3212 50.9434 24.3212 52.3406C24.3212 53.7377 25.4538 54.8703 26.8509 54.8703Z" fill="#B5CEFF"/>
<path d="M18.6509 54.8703C20.048 54.8703 21.1806 53.7377 21.1806 52.3406C21.1806 50.9434 20.048 49.8109 18.6509 49.8109C17.2538 49.8109 16.1212 50.9434 16.1212 52.3406C16.1212 53.7377 17.2538 54.8703 18.6509 54.8703Z" fill="#B5CEFF"/>
</g>
</g>
<path d="M35.9734 26.7074V60.8153H46.0225V26.7074H35.9734ZM45.2025 59.9953H36.7934V27.5274H45.2025V59.9953Z" fill="#B5CEFF"/>
<path d="M35.7684 26.5024V61.0203H46.2275V26.5024H35.7684ZM45.8175 60.6103H36.1784V26.9124H45.8175V60.6103Z" fill="#2E6FF2"/>
<path d="M59.0359 25.8874H49.1959C49.2574 25.8423 49.323 25.7972 49.3845 25.748C50.6801 24.7558 51.4263 23.4192 51.4919 21.9883C51.5493 20.705 51.0573 19.4832 50.143 18.6345C48.3718 17.0027 45.2148 17.2938 43.1033 19.2864C42.9844 19.3971 42.8696 19.516 42.763 19.6349C42.3079 19.1921 41.6847 18.9174 41 18.9174C40.3153 18.9174 39.6921 19.188 39.237 19.6349C39.1304 19.516 39.0156 19.3971 38.8967 19.2864C36.7852 17.2938 33.6282 17.0027 31.857 18.6345C30.9386 19.4832 30.4466 20.705 30.504 21.9883C30.5696 23.4192 31.3199 24.7558 32.6114 25.748C32.6729 25.7972 32.7385 25.8423 32.8 25.8874H22.9641C20.0326 25.8874 17.6464 28.2695 17.6464 31.201V36.9656C17.6464 38.4662 18.8518 39.6921 20.3442 39.7249V56.8465C20.3442 59.4869 22.4926 61.6353 25.133 61.6353H56.867C59.5074 61.6353 61.6558 59.4869 61.6558 56.8465V39.7249C63.1482 39.6921 64.3495 38.4662 64.3495 36.9656V31.201C64.3495 28.2695 61.9633 25.8874 59.0359 25.8874ZM40.1062 21.4471C40.1062 21.3159 40.1349 21.1929 40.1882 21.0822C40.3276 20.7706 40.6392 20.5574 41 20.5574C41.3608 20.5574 41.6724 20.7747 41.8118 21.0863C41.861 21.197 41.8897 21.3159 41.8897 21.4471V25.8423H40.1062V21.4471ZM36.7934 39.729V27.5274H45.2025V59.9953H36.7934V39.729ZM44.2267 20.4795C45.1041 19.6513 46.2357 19.2126 47.2484 19.2126C47.9372 19.2126 48.5727 19.4176 49.0278 19.8399C49.5813 20.3524 49.8888 21.1273 49.856 21.9145C49.8232 22.5787 49.5444 23.5586 48.3882 24.4483C46.7113 25.7316 44.9729 25.8218 43.5297 25.83V21.4471C43.5297 21.4184 43.5297 21.3856 43.5256 21.3569C43.7142 21.0412 43.9479 20.746 44.2267 20.4795ZM32.144 21.9145C32.1071 21.1273 32.4146 20.3524 32.9681 19.8399C33.4273 19.4176 34.0587 19.2126 34.7475 19.2126C35.2559 19.2126 35.7889 19.3233 36.3096 19.5365C36.8303 19.7497 37.3305 20.0654 37.7692 20.4795C38.0521 20.746 38.2817 21.0412 38.4703 21.3569C38.4662 21.3856 38.4662 21.4184 38.4662 21.4471V25.83C37.0271 25.8177 35.2887 25.7316 33.6118 24.4483C32.4515 23.5586 32.1727 22.5787 32.144 21.9145ZM19.2864 36.9656V31.201C19.2864 29.1756 20.9387 27.5274 22.9641 27.5274H35.1534V38.089H20.4139C19.7907 38.089 19.2864 37.5847 19.2864 36.9656ZM21.9842 56.8465V39.729H35.1534V59.9953H25.133C23.3946 59.9953 21.9842 58.5849 21.9842 56.8465ZM60.0158 56.8465C60.0158 58.5849 58.6013 59.9953 56.867 59.9953H46.8425V39.729H60.0158V56.8465ZM62.7095 36.9656C62.7095 37.5847 62.2052 38.089 61.5861 38.089H46.8425V27.5274H59.0359C61.0613 27.5274 62.7095 29.1756 62.7095 31.201V36.9656Z" fill="#2E6FF2"/>
</svg>
