<svg width="82" height="82" viewBox="0 0 82 82" fill="none" xmlns="http://www.w3.org/2000/svg">
<path d="M58.7694 25.8218H23.2306C21.0772 25.8218 19.3315 27.5675 19.3315 29.7209V47.0885C19.3315 49.242 21.0772 50.9876 23.2306 50.9876H58.7694C60.9229 50.9876 62.6685 49.242 62.6685 47.0885V29.7209C62.6685 27.5675 60.9229 25.8218 58.7694 25.8218Z" fill="#B5CEFF"/>
<path d="M59.7042 21.2585H22.2958C18.0728 21.2585 14.6411 24.6943 14.6411 28.9132V47.8921C14.6411 52.1151 18.0769 55.5468 22.2958 55.5468H36.9V57.9084H27.6627C25.3913 57.9084 23.4971 59.5566 23.1117 61.7173H19.5037C19.0527 61.7173 18.6837 62.0863 18.6837 62.5373C18.6837 62.9883 19.0527 63.3573 19.5037 63.3573H62.5045C62.9555 63.3573 63.3245 62.9883 63.3245 62.5373C63.3245 62.0863 62.9555 61.7173 62.5045 61.7173H58.8965C58.507 59.5566 56.6169 57.9084 54.3455 57.9084H45.1082V55.5468H59.7124C63.9313 55.5468 67.3671 52.111 67.3671 47.8921V28.9132C67.3671 24.6902 63.9313 21.2585 59.7124 21.2585H59.7042ZM57.2155 61.7214H24.7845C25.1412 60.4709 26.2974 59.5525 27.6586 59.5525H54.3373C55.7026 59.5525 56.8547 60.4709 57.2114 61.7214H57.2155ZM43.46 57.9125H38.5359V55.5509H43.46V57.9125ZM65.7189 47.8962C65.7189 51.2131 63.0211 53.9109 59.7042 53.9109H22.2958C18.9789 53.9109 16.2811 51.2131 16.2811 47.8962V28.9173C16.2811 25.6004 18.9789 22.9026 22.2958 22.9026H59.7083C63.0252 22.9026 65.723 25.6004 65.723 28.9173V47.8962H65.7189Z" fill="#2E6FF2"/>
<path d="M36.5146 36.5638C36.7442 36.449 36.8754 36.2891 36.9041 36.08C36.9328 35.875 36.9041 35.6741 36.818 35.4814C36.7237 35.2682 36.5802 35.1288 36.3998 35.0632C36.2194 34.9976 36.0062 35.0263 35.7643 35.1493L30.6147 37.8471C30.4425 37.9414 30.299 38.0316 30.1883 38.1136C30.0776 38.1956 29.9915 38.2776 29.93 38.3678C29.8685 38.4539 29.8234 38.5482 29.7988 38.6507C29.7742 38.7532 29.7619 38.8598 29.7619 38.9746C29.7619 39.2042 29.8152 39.401 29.9218 39.565C30.0284 39.729 30.258 39.9012 30.6147 40.0857L35.7479 42.7835C35.9898 42.9106 36.203 42.9393 36.3916 42.8696C36.5802 42.804 36.7196 42.6646 36.818 42.4514C36.9041 42.2505 36.9328 42.0455 36.9041 41.8405C36.8754 41.6355 36.7442 41.4715 36.5146 41.3567L31.8693 38.991V38.9049L36.5146 36.5679V36.5638Z" fill="#2E6FF2"/>
<path d="M42.8122 33.7225C42.6236 33.6651 42.4391 33.6651 42.2628 33.7184C42.0701 33.7758 41.9348 33.9193 41.8569 34.1448L38.7245 43.3616C38.6548 43.5707 38.6712 43.7552 38.7737 43.911C38.8721 44.0627 39.0156 44.1611 39.2001 44.2144C39.2985 44.2431 39.3928 44.2595 39.4912 44.2595C39.5814 44.2595 39.6675 44.2472 39.7536 44.2226C39.9463 44.1652 40.0816 44.0217 40.1595 43.7962L43.3001 34.5794C43.3698 34.3785 43.3493 34.194 43.2427 34.0341C43.1361 33.8742 42.9967 33.7758 42.8081 33.7266L42.8122 33.7225Z" fill="#2E6FF2"/>
<path d="M52.0823 38.3678C52.0208 38.2817 51.9347 38.1956 51.824 38.1136C51.7133 38.0316 51.5698 37.9414 51.3976 37.8471L46.248 35.1493C46.0061 35.0263 45.797 34.9935 45.6125 35.0632C45.4321 35.1288 45.2886 35.2682 45.1943 35.4814C45.1082 35.6741 45.0795 35.875 45.1082 36.08C45.1369 36.285 45.2681 36.449 45.4977 36.5638L50.143 38.9008V38.9869L45.4977 41.3526C45.2681 41.4674 45.1369 41.6273 45.1082 41.8364C45.0795 42.0414 45.1082 42.2464 45.1943 42.4473C45.2886 42.6605 45.4321 42.7999 45.6207 42.8655C45.8093 42.9311 46.0225 42.9024 46.2644 42.7794L51.4017 40.0816C51.7584 39.8971 51.988 39.7249 52.0946 39.5609C52.2012 39.3969 52.2545 39.2001 52.2545 38.9705C52.2545 38.8557 52.2422 38.7491 52.2176 38.6466C52.193 38.5441 52.152 38.4498 52.0864 38.3637L52.0823 38.3678Z" fill="#2E6FF2"/>
</svg>
