<svg width="82" height="82" viewBox="0 0 82 82" fill="none" xmlns="http://www.w3.org/2000/svg">
<path d="M65.9649 20.2704C64.165 16.5271 59.6673 14.9486 55.924 16.7526C52.1807 18.5566 50.6022 23.0502 52.4062 26.7935C52.6563 27.3101 52.9597 27.7816 53.3041 28.2121L52.6317 29.9259C52.4554 30.3687 52.9433 30.7828 53.3533 30.5409L54.8252 29.6635C56.9859 31.1969 59.8887 31.5413 62.4471 30.3154C66.1904 28.5155 67.7689 24.0178 65.9649 20.2745V20.2704Z" fill="#B5CEFF"/>
<path d="M27.7488 42.0209C28.1875 42.0209 28.5401 41.6683 28.5401 41.2296C28.5401 40.7909 28.1875 40.4383 27.7488 40.4383C27.3101 40.4383 26.9575 40.7909 26.9575 41.2296C26.9575 41.6683 27.3101 42.0209 27.7488 42.0209Z" fill="#2E6FF2"/>
<path d="M30.5204 42.0209C30.9574 42.0209 31.3117 41.6666 31.3117 41.2296C31.3117 40.7926 30.9574 40.4383 30.5204 40.4383C30.0834 40.4383 29.7291 40.7926 29.7291 41.2296C29.7291 41.6666 30.0834 42.0209 30.5204 42.0209Z" fill="#2E6FF2"/>
<path d="M31.1559 42.9803C30.8484 42.845 30.4876 42.9721 30.3482 43.2837C30.3359 43.3042 30.0858 43.747 29.1387 43.747C28.1916 43.747 27.9333 43.3206 27.9087 43.2796C27.7611 42.9844 27.4003 42.8573 27.101 42.9967C26.7935 43.1402 26.6582 43.5051 26.8017 43.8126C27.0026 44.2472 27.7201 44.977 29.1387 44.977C30.5573 44.977 31.2707 44.239 31.4634 43.8044C31.6028 43.4928 31.4634 43.1197 31.1559 42.9844V42.9803Z" fill="#2E6FF2"/>
<path d="M59.0114 47.8757C59.0565 47.8306 59.0975 47.7855 59.1385 47.7404C60.5407 46.2111 61.2992 44.2513 61.2992 42.1849C61.2992 42.0619 61.2951 41.9348 61.291 41.8077C61.086 37.269 57.2361 33.7389 52.6851 33.9398C51.7544 33.9808 50.8524 34.1776 50.0119 34.5097C49.1345 33.6528 48.1382 32.9189 47.0435 32.3408C48.4621 30.8607 49.3354 28.8558 49.3354 26.65C49.3354 22.1072 45.6372 18.409 41.0903 18.409C36.5434 18.409 32.8452 22.1072 32.8452 26.65C32.8452 28.8558 33.7185 30.8607 35.1371 32.3408C34.0424 32.9189 33.0461 33.6528 32.1687 34.5097C31.2298 34.1366 30.2089 33.9316 29.1388 33.9316C24.596 33.9316 20.8978 37.6298 20.8978 42.1767C20.8978 44.3866 21.7711 46.3915 23.1897 47.8716C19.1348 50.0118 16.3632 54.2758 16.3632 59.1712V62.7423C16.3632 63.1933 16.7322 63.5623 17.1832 63.5623C17.6342 63.5623 18.0032 63.1933 18.0032 62.7423V59.1712C18.0032 54.6612 20.6969 50.7703 24.5591 49.0237C25.8711 49.9052 27.4455 50.4218 29.1388 50.4218C30.8321 50.4218 32.4106 49.9052 33.7226 49.0237C37.5848 50.7744 40.2785 54.6612 40.2785 59.1712V62.7423C40.2785 62.771 40.2785 62.7997 40.2826 62.8243C40.3072 63.2548 40.6598 63.591 41.0985 63.591C41.5372 63.591 41.8898 63.2548 41.9144 62.8243C41.9185 62.7997 41.9185 62.771 41.9185 62.7423V59.1712C41.9185 54.6653 44.6081 50.7744 48.4662 49.0278C49.8151 49.938 51.3977 50.4218 53.0459 50.4218C53.173 50.4218 53.296 50.4177 53.4231 50.4136C54.9565 50.3439 56.4038 49.8642 57.6461 49.0278C61.5042 50.7785 64.1897 54.6653 64.1897 59.1712V62.771C64.1897 63.2261 64.5587 63.591 65.0097 63.591C65.4607 63.591 65.8297 63.2261 65.8297 62.771V59.1712C65.8297 54.2758 63.0622 50.0159 59.0114 47.8757ZM34.4852 26.65C34.4852 23.0092 37.4495 20.049 41.0903 20.049C44.7311 20.049 47.6954 23.0092 47.6954 26.65C47.6954 28.6344 46.818 30.4179 45.4281 31.6274C44.8746 32.1112 44.235 32.5048 43.538 32.7836C42.7795 33.087 41.9554 33.2551 41.0903 33.2551C40.2252 33.2551 39.4011 33.087 38.6426 32.7836C37.9456 32.5048 37.306 32.1112 36.7525 31.6274C35.3626 30.4179 34.4852 28.6344 34.4852 26.65ZM29.9506 48.7285C29.6841 48.7654 29.4135 48.7818 29.1388 48.7818C28.8641 48.7818 28.5812 48.7654 28.3106 48.7285C27.7489 48.6588 27.2036 48.5153 26.6952 48.3103C26.0023 48.0315 25.3668 47.6379 24.8092 47.1541C23.4193 45.9446 22.5378 44.1611 22.5378 42.1767C22.5378 38.5359 25.498 35.5716 29.1388 35.5716C29.7784 35.5716 30.3975 35.6618 30.9838 35.8381C31.5332 35.9939 32.0539 36.2235 32.5377 36.5187C34.4565 37.6708 35.7439 39.7782 35.7439 42.1767C35.7439 44.1611 34.8665 45.9405 33.4766 47.1541C32.919 47.6379 32.2794 48.0315 31.5824 48.3103C31.0699 48.5153 30.5205 48.6588 29.9506 48.7285ZM41.0985 54.6653C39.9874 51.7338 37.8349 49.3189 35.092 47.8716C36.5147 46.3915 37.3839 44.3866 37.3839 42.1767C37.3839 39.319 35.9243 36.7975 33.7062 35.3174C34.5385 34.5794 35.4856 33.9603 36.5106 33.5011C37.8185 34.3826 39.397 34.8951 41.0903 34.8951C42.7836 34.8951 44.3621 34.3826 45.67 33.5011C46.695 33.9603 47.6421 34.5794 48.4744 35.3174C47.9291 35.6823 47.4248 36.1169 46.9697 36.613C45.4855 38.2407 44.7188 40.344 44.8172 42.5457C44.9074 44.5629 45.7151 46.4366 47.0968 47.8757C44.358 49.323 42.2055 51.7379 41.0985 54.6653ZM53.8659 48.7285C53.6937 48.7531 53.5215 48.7654 53.3493 48.7736C52.968 48.79 52.5949 48.7777 52.2259 48.7285C51.6642 48.6588 51.1189 48.5194 50.5982 48.3103C49.9176 48.0397 49.2821 47.6502 48.7163 47.1582C48.6753 47.1213 48.6384 47.0885 48.5974 47.0516C47.2977 45.8585 46.5351 44.2349 46.4572 42.4719C46.3793 40.7089 46.9902 39.0238 48.1792 37.72C48.6179 37.2485 49.1058 36.8467 49.6429 36.5228C50.1267 36.2235 50.6515 35.998 51.1968 35.8381C51.7011 35.6905 52.2218 35.6044 52.7589 35.5798C52.8614 35.5757 52.9598 35.5716 53.0582 35.5716C54.813 35.5716 56.4202 36.2645 57.6092 37.4002C58.8023 38.5359 59.5731 40.1144 59.651 41.8815C59.733 43.6445 59.118 45.3296 57.929 46.6334C57.7609 46.822 57.5846 46.9942 57.396 47.1582C56.8343 47.6502 56.1947 48.0397 55.51 48.3103C54.9852 48.5194 54.4358 48.6588 53.8659 48.7285Z" fill="#2E6FF2"/>
<path d="M51.6641 42.0209C52.1028 42.0209 52.4554 41.6683 52.4554 41.2296C52.4554 40.7909 52.1028 40.4383 51.6641 40.4383C51.2254 40.4383 50.8728 40.7909 50.8728 41.2296C50.8728 41.6683 51.2254 42.0209 51.6641 42.0209Z" fill="#2E6FF2"/>
<path d="M54.4317 42.0209C54.8704 42.0209 55.223 41.6683 55.223 41.2296C55.223 40.7909 54.8704 40.4383 54.4317 40.4383C53.993 40.4383 53.6404 40.7909 53.6404 41.2296C53.6404 41.6683 53.993 42.0209 54.4317 42.0209Z" fill="#2E6FF2"/>
<path d="M55.0712 42.9803C54.7637 42.845 54.4029 42.9721 54.2635 43.2837C54.2512 43.3042 54.0011 43.747 53.054 43.747C52.1069 43.747 51.8486 43.3206 51.824 43.2796C51.6764 42.9844 51.3197 42.8573 51.0163 42.9967C50.7088 43.1402 50.5735 43.5051 50.717 43.8126C50.9179 44.2472 51.6354 44.977 53.054 44.977C54.4726 44.977 55.186 44.239 55.3787 43.8044C55.5181 43.4928 55.3787 43.1197 55.0712 42.9844V42.9803Z" fill="#2E6FF2"/>
<path d="M39.6962 26.4942C40.1349 26.4942 40.4875 26.1416 40.4875 25.7029C40.4875 25.2642 40.1349 24.9116 39.6962 24.9116C39.2575 24.9116 38.9049 25.2642 38.9049 25.7029C38.9049 26.1416 39.2575 26.4942 39.6962 26.4942Z" fill="#2E6FF2"/>
<path d="M42.4678 26.4942C42.9065 26.4942 43.2591 26.1416 43.2591 25.7029C43.2591 25.2642 42.9065 24.9116 42.4678 24.9116C42.0291 24.9116 41.6765 25.2642 41.6765 25.7029C41.6765 26.1416 42.0291 26.4942 42.4678 26.4942Z" fill="#2E6FF2"/>
<path d="M41.0903 29.4503C42.513 29.4503 43.2223 28.7123 43.415 28.2777C43.5544 27.9661 43.415 27.593 43.1075 27.4577C42.7959 27.3224 42.4392 27.4495 42.2998 27.7611C42.2875 27.7816 42.0374 28.2244 41.0903 28.2244C40.1432 28.2244 39.8849 27.798 39.8603 27.757C39.7127 27.4618 39.3519 27.3347 39.0526 27.4741C38.7451 27.6176 38.6098 27.9825 38.7533 28.29C38.9542 28.7205 39.6717 29.4544 41.0903 29.4544V29.4503Z" fill="#2E6FF2"/>
</svg>
