<svg width="82" height="82" viewBox="0 0 82 82" fill="none" xmlns="http://www.w3.org/2000/svg">
<path d="M41.3362 57.4123C53.7268 57.4123 63.7714 47.3678 63.7714 34.9771C63.7714 22.5865 53.7268 12.5419 41.3362 12.5419C28.9456 12.5419 18.901 22.5865 18.901 34.9771C18.901 47.3678 28.9456 57.4123 41.3362 57.4123Z" fill="#B5CEFF"/>
<path d="M52.7752 22.8206C49.528 19.6923 45.2476 18.0687 40.7294 18.2409C32.2752 18.5648 25.3462 25.4405 24.9567 33.8906C24.7435 38.4949 26.486 43.0049 29.7291 46.2644C31.1518 47.6912 31.9349 49.5362 31.9349 51.4591V51.5739C31.9349 53.2098 32.7221 54.6612 33.9357 55.5796C32.9353 56.2438 32.2752 57.3795 32.2752 58.6669V63.6853C32.2752 65.0998 33.0747 66.3339 34.2432 66.9571C34.276 66.9735 34.3088 66.9899 34.3416 67.0022C34.7188 67.1908 35.1288 67.3179 35.5675 67.363C36.4203 69.8189 38.7245 71.4917 41.3772 71.4917C44.0299 71.4917 46.3341 69.823 47.1869 67.363C49.036 67.1539 50.4751 65.5836 50.4751 63.6812V58.6628C50.4751 57.4902 49.9257 56.4447 49.0688 55.7641C49.0442 55.7436 49.0196 55.7272 48.995 55.7108C48.9335 55.6657 48.8761 55.6206 48.8105 55.5796C50.0241 54.6612 50.8113 53.2098 50.8113 51.5739C50.8113 49.5895 51.6149 47.683 53.0745 46.2029C56.1249 43.1074 57.8059 39.0115 57.8059 34.6655C57.8059 30.3195 56.0142 25.9489 52.7629 22.8206H52.7752ZM35.9857 56.6005H44.1242L33.9193 58.9662V58.6669C33.9193 57.5271 34.8459 56.6005 35.9857 56.6005V56.6005ZM33.948 63.9518L48.8433 60.4955V62.1191L34.8049 65.3745C34.3416 65.0506 34.0259 64.5381 33.948 63.9518V63.9518ZM33.9193 62.2749V60.6513L48.3226 57.3098C48.6424 57.6747 48.8433 58.1462 48.8433 58.6669V58.8104L33.9193 62.2708V62.2749ZM46.7769 65.7517H40.4342L48.831 63.8042C48.7695 64.8866 47.8757 65.7517 46.7769 65.7517ZM51.9183 45.0549C50.1553 46.8425 49.1836 49.159 49.1836 51.578C49.1836 53.4435 47.6666 54.9646 45.797 54.9646H36.9656C35.1001 54.9646 33.579 53.4476 33.579 51.578V51.4632C33.579 49.1016 32.6278 46.8466 30.8976 45.1082C27.9333 42.1316 26.404 38.1751 26.6008 33.9685C26.9534 26.363 33.1895 20.1761 40.7991 19.885C40.9959 19.8768 41.1927 19.8727 41.3895 19.8727C45.2394 19.8727 48.8597 21.3282 51.6436 24.0055C54.571 26.8222 56.1823 30.6106 56.1823 34.6696C56.1823 38.7286 54.6694 42.271 51.9224 45.0549H51.9183Z" fill="#2E6FF2"/>
<path d="M38.7819 34.4523C39.483 34.4523 40.0529 33.8824 40.0529 33.1813C40.0529 32.4802 39.483 31.9103 38.7819 31.9103C38.0808 31.9103 37.5109 32.4802 37.5109 33.1813C37.5109 33.8824 38.0808 34.4523 38.7819 34.4523Z" fill="#2E6FF2"/>
<path d="M43.2386 34.4523C43.9397 34.4523 44.5096 33.8824 44.5096 33.1813C44.5096 32.4802 43.9397 31.9103 43.2386 31.9103C42.5375 31.9103 41.9676 32.4802 41.9676 33.1813C41.9676 33.8824 42.5375 34.4523 43.2386 34.4523Z" fill="#2E6FF2"/>
<path d="M44.1939 36.1497C43.7798 35.9652 43.3001 36.1415 43.1156 36.5556C43.0992 36.5884 42.6605 37.3879 41.0205 37.3879C39.3805 37.3879 38.9295 36.6089 38.8967 36.5474C38.6999 36.1497 38.2202 35.9775 37.8184 36.1661C37.4084 36.3547 37.228 36.8426 37.4166 37.2526C37.4494 37.3264 38.2694 39.0279 41.0205 39.0279C43.7716 39.0279 44.5711 37.3141 44.6039 37.2403C44.7884 36.8262 44.6039 36.3301 44.1939 36.1456V36.1497Z" fill="#2E6FF2"/>
</svg>
